<svg width="117" height="86" viewBox="0 0 117 86" fill="none" xmlns="http://www.w3.org/2000/svg">
<path d="M85.3125 23.7656C85.3125 33.8621 77.1277 42.0469 67.0312 42.0469C56.9348 42.0469 48.75 33.8621 48.75 23.7656C48.75 13.6692 56.9348 5.48438 67.0312 5.48438C77.1277 5.48438 85.3125 13.6692 85.3125 23.7656ZM59.7187 23.7656C59.7187 27.8042 62.9927 31.0781 67.0312 31.0781C71.0698 31.0781 74.3437 27.8042 74.3437 23.7656C74.3437 19.727 71.0698 16.4531 67.0312 16.4531C62.9927 16.4531 59.7187 19.727 59.7187 23.7656Z" fill="#22B573"/>
<path d="M43.2656 23.7656C43.2656 33.8621 35.0808 42.0469 24.9844 42.0469C14.8879 42.0469 6.70312 33.8621 6.70312 23.7656C6.70312 13.6692 14.8879 5.48438 24.9844 5.48438C35.0808 5.48438 43.2656 13.6692 43.2656 23.7656ZM17.6719 23.7656C17.6719 27.8042 20.9458 31.0781 24.9844 31.0781C29.023 31.0781 32.2969 27.8042 32.2969 23.7656C32.2969 19.727 29.023 16.4531 24.9844 16.4531C20.9458 16.4531 17.6719 19.727 17.6719 23.7656Z" fill="#22B573"/>
<rect x="32.2969" width="10.9688" height="29.25" rx="5.48438" fill="#22B573"/>
<path d="M40.8281 67.3359C40.8281 77.2641 48.8765 85.3125 58.8047 85.3125C68.7329 85.3125 76.7812 77.2641 76.7812 67.3359C76.7812 57.4078 68.7329 49.3594 58.8047 49.3594C48.8765 49.3594 40.8281 57.4078 40.8281 67.3359ZM65.9953 67.3359C65.9953 71.3072 62.776 74.5266 58.8047 74.5266C54.8334 74.5266 51.6141 71.3072 51.6141 67.3359C51.6141 63.3647 54.8334 60.1453 58.8047 60.1453C62.776 60.1453 65.9953 63.3647 65.9953 67.3359Z" fill="#22B573"/>
<rect width="10.9688" height="34.125" rx="5.48438" transform="matrix(-1 0 0 1 51.7974 38.3905)" fill="#22B573"/>
<path d="M33.753 57.2431C31.6739 58.4435 29.3834 59.2306 27.0122 59.5597C24.6411 59.8887 22.2358 59.7532 19.9336 59.1608C17.6314 58.5684 15.4774 57.5308 13.5946 56.1072C11.7119 54.6836 10.1372 52.9018 8.96048 50.8637L18.4597 45.3794C18.9304 46.1946 19.5603 46.9073 20.3134 47.4767C21.0665 48.0462 21.9281 48.4612 22.8489 48.6982C23.7698 48.9351 24.7319 48.9893 25.6804 48.8577C26.6289 48.7261 27.5451 48.4112 28.3767 47.9311L33.753 57.2431Z" fill="#22B573"/>
<circle cx="13.8905" cy="48.4336" r="5.48438" transform="rotate(60 13.8905 48.4336)" fill="#22B573"/>
<path d="M112.36 54.861C110.359 52.6176 107.835 50.9025 105.012 49.8675C102.19 48.8325 99.1555 48.5096 96.1783 48.9274C93.2011 49.3451 90.3729 50.4907 87.9442 52.2626C85.5155 54.0345 83.5612 56.378 82.2545 59.0856C80.9479 61.7931 80.3291 64.7811 80.453 67.7849C80.577 70.7888 81.4398 73.7156 82.9651 76.3063C84.4904 78.897 86.6311 81.0716 89.1975 82.6374C91.764 84.2031 94.677 85.1118 97.6785 85.2829L98.3026 74.3319C97.102 74.2635 95.9368 73.9 94.9103 73.2737C93.8837 72.6474 93.0274 71.7776 92.4173 70.7413C91.8072 69.705 91.462 68.5343 91.4125 67.3327C91.3629 66.1312 91.6104 64.936 92.1331 63.853C92.6557 62.7699 93.4374 61.8325 94.4089 61.1238C95.3804 60.415 96.5117 59.9568 97.7026 59.7897C98.8935 59.6226 100.107 59.7518 101.236 60.1658C102.365 60.5798 103.375 61.2658 104.175 62.1631L112.36 54.861Z" fill="#22B573"/>
<path d="M117 67.0312C117 62.1828 115.074 57.5329 111.646 54.1045L103.889 61.8605C105.261 63.2319 106.031 65.0919 106.031 67.0312H117Z" fill="#22B573"/>
<circle cx="98.7183" cy="79.828" r="5.48438" fill="#22B573"/>
<rect x="96.8906" y="61.5469" width="20.1094" height="10.9688" rx="5.48438" fill="#22B573"/>
</svg>